<svg width="11" height="18" viewBox="0 0 11 18" fill="none" xmlns="http://www.w3.org/2000/svg">
<path d="M3.04189 1.40366C2.44592 0.828235 1.49632 0.844894 0.920898 1.44087C0.345477 2.03684 0.362136 2.98644 0.958108 3.56186L3.04189 1.40366ZM8.25491 8.52198L7.21301 9.60108L8.25491 8.52198ZM3.04189 17.0791L9.2968 11.0399L7.21301 8.88168L0.958108 14.9209L3.04189 17.0791ZM9.2968 7.44288L3.04189 1.40366L0.958108 3.56186L7.21301 9.60108L9.2968 7.44288ZM9.2968 11.0399C10.3148 10.057 10.3148 8.42579 9.2968 7.44288L7.21301 9.60108C7.00941 9.4045 7.00941 9.07826 7.21301 8.88168L9.2968 11.0399Z" fill="white"/>
</svg>
