<?xml version="1.0" encoding="utf-8"?>
<!-- Svg Vector Icons : http://www.onlinewebfonts.com/icon -->
<!DOCTYPE svg PUBLIC "-//W3C//DTD SVG 1.1//EN" "http://www.w3.org/Graphics/SVG/1.1/DTD/svg11.dtd">
<svg version="1.1" xmlns="http://www.w3.org/2000/svg" xmlns:xlink="http://www.w3.org/1999/xlink" x="0px" y="0px" viewBox="0 0 1000 1000" enable-background="new 0 0 1000 1000" xml:space="preserve">
<metadata> Svg Vector Icons : http://www.onlinewebfonts.com/icon </metadata>
<g><path d="M500,10C229.4,10,10,229.4,10,500c0,270.6,219.4,490,490,490c270.6,0,490-219.4,490-490C990,229.4,770.6,10,500,10z M860.5,362.8L757.8,674.6l-2-0.7v0.7H390.5c6.4,24.2,10.2,38.9,10.5,40.1c0.7,2.5,7,22.8,25.7,23.2l238.1,0.6l33.4,0c0.1,0,0.2,0,0.2,0c0.1,0,0.2,0,0.2,0l1.3,0v0c44.2,0.9,79.8,37,79.8,81.4c0,44.9-36.5,81.4-81.4,81.4c-44.9,0-81.4-36.5-81.4-81.4c0-13.1,3.1-25.5,8.7-36.5l-133.4-0.3c5.4,10.9,8.5,23.2,8.5,36.2c0,44.9-36.5,81.4-81.4,81.4c-44.9,0-81.4-36.5-81.4-81.4c0-26.9,13.1-50.7,33.2-65.6c-7.2-9.7-11.6-20-13.6-27.6c-1.6-6-75.4-285-120.2-472.2c-3.7-15.5-9.3-15.5-13-15.5h-62.4v-45.1h62.4c28.5,0,49.2,18.3,56.8,50.1c5.6,23.5,11.7,48.5,18.1,74.2h562.3v45.1L860.5,362.8L860.5,362.8z"/><path d="M419.4,855.8c20.1,0,36.4-16.3,36.4-36.4c0-20.1-16.3-36.4-36.4-36.4c-20.1,0-36.4,16.3-36.4,36.4C383,839.5,399.3,855.8,419.4,855.8z"/><path d="M698.5,856.5c20.1,0,36.4-16.3,36.4-36.4c0-20-16.2-36.2-36.1-36.4h-0.5c-20,0.1-36.2,16.4-36.2,36.4C662.1,840.1,678.4,856.5,698.5,856.5z"/><path d="M378.7,629.6h346.4l87.9-266.8H310.4C334.6,459.7,360.8,560.8,378.7,629.6z"/></g>
</svg>